<?xml version="1.0" encoding="UTF-8" standalone="no"?><svg xmlns="http://www.w3.org/2000/svg" xmlns:xlink="http://www.w3.org/1999/xlink" contentScriptType="application/ecmascript" contentStyleType="text/css" height="182px" preserveAspectRatio="none" style="width:360px;height:182px;" version="1.1" viewBox="0 0 360 182" width="360px" zoomAndPan="magnify"><defs><filter height="300%" id="f2yrvzqjk8mxt" width="300%" x="-1" y="-1"><feGaussianBlur result="blurOut" stdDeviation="2.0"/><feColorMatrix in="blurOut" result="blurOut2" type="matrix" values="0 0 0 0 0 0 0 0 0 0 0 0 0 0 0 0 0 0 .4 0"/><feOffset dx="4.0" dy="4.0" in="blurOut2" result="blurOut3"/><feBlend in="SourceGraphic" in2="blurOut3" mode="normal"/></filter></defs><g><!--class Magasin--><rect fill="#FEFECE" filter="url(#f2yrvzqjk8mxt)" height="163.2422" id="Magasin" style="stroke: #A80036; stroke-width: 1.5;" width="343" x="6" y="8"/><ellipse cx="148.75" cy="24" fill="#ADD1B2" rx="11" ry="11" style="stroke: #A80036; stroke-width: 1.0;"/><path d="M151.7188,29 Q151.1406,29.5 150.5,29.75 Q149.8594,30 149.1563,30 Q146.6563,30 145.3359,28.4609 Q144.0156,26.9219 144.0156,24 Q144.0156,21.0781 145.3359,19.5391 Q146.6563,18 149.1563,18 Q149.8594,18 150.5078,18.25 Q151.1563,18.5 151.7188,19 L151.7188,22 Q151.0938,20.9688 150.5,20.4844 Q149.9063,20 149.2656,20 Q147.9375,20 147.25,21.0078 Q146.5625,22.0156 146.5625,24 Q146.5625,25.9844 147.25,26.9922 Q147.9375,28 149.2656,28 Q149.9063,28 150.5,27.5156 Q151.0938,27.0313 151.7188,26 L151.7188,29 Z "/><text fill="#000000" font-family="sans-serif" font-size="12" lengthAdjust="spacingAndGlyphs" textLength="49" x="169.25" y="28.1543">Magasin</text><line style="stroke: #A80036; stroke-width: 1.5;" x1="7" x2="348" y1="40" y2="40"/><text fill="#000000" font-family="sans-serif" font-size="11" lengthAdjust="spacingAndGlyphs" textLength="12" x="12" y="54.2104">...</text><line style="stroke: #A80036; stroke-width: 1.5;" x1="7" x2="348" y1="60.8047" y2="60.8047"/><ellipse cx="17" cy="72.707" fill="#84BE84" rx="3" ry="3" style="stroke: #038048; stroke-width: 1.0;"/><text fill="#000000" font-family="sans-serif" font-size="11" lengthAdjust="spacingAndGlyphs" textLength="145" x="26" y="75.0151">«const» nbLocations(): int</text><ellipse cx="17" cy="85.5117" fill="#84BE84" rx="3" ry="3" style="stroke: #038048; stroke-width: 1.0;"/><text fill="#000000" font-family="sans-serif" font-size="11" lengthAdjust="spacingAndGlyphs" textLength="271" x="26" y="87.8198">ajouterLocation(idClient: int, idProduit: int): void</text><ellipse cx="17" cy="98.3164" fill="#84BE84" rx="3" ry="3" style="stroke: #038048; stroke-width: 1.0;"/><text fill="#000000" font-family="sans-serif" font-size="11" lengthAdjust="spacingAndGlyphs" textLength="184" x="26" y="100.6245">«const» afficherLocations(): void</text><ellipse cx="17" cy="111.1211" fill="#84BE84" rx="3" ry="3" style="stroke: #038048; stroke-width: 1.0;"/><text fill="#000000" font-family="sans-serif" font-size="11" lengthAdjust="spacingAndGlyphs" textLength="289" x="26" y="113.4292">supprimerLocation(idClient: int, idProduit: int): void</text><ellipse cx="17" cy="123.9258" fill="#84BE84" rx="3" ry="3" style="stroke: #038048; stroke-width: 1.0;"/><text fill="#000000" font-family="sans-serif" font-size="11" lengthAdjust="spacingAndGlyphs" textLength="301" x="26" y="126.2339">«const» trouverClientDansLocation(idClient: int): bool</text><ellipse cx="17" cy="136.7305" fill="#84BE84" rx="3" ry="3" style="stroke: #038048; stroke-width: 1.0;"/><text fill="#000000" font-family="sans-serif" font-size="11" lengthAdjust="spacingAndGlyphs" textLength="273" x="26" y="139.0386">«const» calculerClientsLibres(): std::vector&lt;int&gt;</text><ellipse cx="17" cy="149.5352" fill="#84BE84" rx="3" ry="3" style="stroke: #038048; stroke-width: 1.0;"/><text fill="#000000" font-family="sans-serif" font-size="11" lengthAdjust="spacingAndGlyphs" textLength="317" x="26" y="151.8433">«const» trouverProduitDansLocation(idProduit: int): bool</text><ellipse cx="17" cy="162.3398" fill="#84BE84" rx="3" ry="3" style="stroke: #038048; stroke-width: 1.0;"/><text fill="#000000" font-family="sans-serif" font-size="11" lengthAdjust="spacingAndGlyphs" textLength="281" x="26" y="164.6479">«const» calculerProduitsLibres(): std::vector&lt;int&gt;</text><!--
@startuml

class Magasin {
...
+ <<const>> nbLocations(): int 
+ ajouterLocation(idClient: int, idProduit: int): void 
+ <<const>> afficherLocations(): void 
+ supprimerLocation(idClient: int, idProduit: int): void 
+ <<const>> trouverClientDansLocation(idClient: int): bool 
+ <<const>> calculerClientsLibres(): std::vector<int> 
+ <<const>> trouverProduitDansLocation(idProduit: int): bool 
+ <<const>> calculerProduitsLibres(): std::vector<int> 
}

@enduml

PlantUML version 1.2017.18(Fri Oct 06 18:56:32 CEST 2017)
(GPL source distribution)
Java Runtime: OpenJDK Runtime Environment
JVM: OpenJDK 64-Bit Server VM
Java Version: 1.8.0_172-02
Operating System: Linux
OS Version: 4.14.32
Default Encoding: UTF-8
Language: fr
Country: FR
--></g></svg>