<?xml version="1.0" encoding="UTF-8" standalone="no"?><svg xmlns="http://www.w3.org/2000/svg" xmlns:xlink="http://www.w3.org/1999/xlink" contentScriptType="application/ecmascript" contentStyleType="text/css" height="265px" preserveAspectRatio="none" style="width:226px;height:265px;" version="1.1" viewBox="0 0 226 265" width="226px" zoomAndPan="magnify"><defs><filter height="300%" id="f1vwqeqddxm9uo" width="300%" x="-1" y="-1"><feGaussianBlur result="blurOut" stdDeviation="2.0"/><feColorMatrix in="blurOut" result="blurOut2" type="matrix" values="0 0 0 0 0 0 0 0 0 0 0 0 0 0 0 0 0 0 .4 0"/><feOffset dx="4.0" dy="4.0" in="blurOut2" result="blurOut3"/><feBlend in="SourceGraphic" in2="blurOut3" mode="normal"/></filter></defs><g><!--class Noeud--><rect fill="#FEFECE" filter="url(#f1vwqeqddxm9uo)" height="73.6094" id="Noeud" style="stroke: #A80036; stroke-width: 1.5;" width="113" x="54" y="8"/><ellipse cx="87.9" cy="24" fill="#ADD8E6" rx="11" ry="11" style="stroke: #A80036; stroke-width: 1.0;"/><path d="M87.1344,24.5469 Q85.2906,23.9063 84.6344,23.1953 Q83.9781,22.4844 83.9781,21.2969 Q83.9781,19.75 85.0563,18.875 Q86.1344,18 88.0094,18 Q88.8688,18 89.7203,18.25 Q90.5719,18.5 91.4156,19 L91.4156,22 Q90.6344,21.0156 89.8141,20.5078 Q88.9938,20 88.1969,20 Q87.3219,20 86.8453,20.3828 Q86.3688,20.7656 86.3688,21.4688 Q86.3688,22.0156 86.7125,22.375 Q87.0563,22.7344 88.15,23.1719 L89.2125,23.4219 Q90.7125,23.9063 91.4156,24.7031 Q92.1188,25.5 92.1188,26.7188 Q92.1188,28.375 91.0094,29.1875 Q89.9,30 87.6656,30 Q86.7438,30 85.8141,29.75 Q84.8844,29.5 84.025,29 L84.025,26 Q85.0094,27.0156 85.9234,27.5078 Q86.8375,28 87.7281,28 Q88.6344,28 89.1344,27.5938 Q89.6344,27.1875 89.6344,26.4531 Q89.6344,25.9063 89.2984,25.4922 Q88.9625,25.0781 88.3375,24.8438 L87.1344,24.5469 Z "/><text fill="#000000" font-family="sans-serif" font-size="12" lengthAdjust="spacingAndGlyphs" textLength="39" x="106.1" y="28.1543">Noeud</text><line style="stroke: #A80036; stroke-width: 1.5;" x1="55" x2="166" y1="40" y2="40"/><text fill="#000000" font-family="sans-serif" font-size="11" lengthAdjust="spacingAndGlyphs" textLength="64" x="60" y="54.2104">_valeur: int</text><text fill="#000000" font-family="sans-serif" font-size="11" lengthAdjust="spacingAndGlyphs" textLength="101" x="60" y="67.0151">_suivant: Noeud *</text><line style="stroke: #A80036; stroke-width: 1.5;" x1="55" x2="166" y1="73.6094" y2="73.6094"/><!--class Liste--><rect fill="#FEFECE" filter="url(#f1vwqeqddxm9uo)" height="112.0234" id="Liste" style="stroke: #A80036; stroke-width: 1.5;" width="209" x="6" y="142"/><ellipse cx="92.25" cy="158" fill="#ADD8E6" rx="11" ry="11" style="stroke: #A80036; stroke-width: 1.0;"/><path d="M91.4844,158.5469 Q89.6406,157.9063 88.9844,157.1953 Q88.3281,156.4844 88.3281,155.2969 Q88.3281,153.75 89.4063,152.875 Q90.4844,152 92.3594,152 Q93.2188,152 94.0703,152.25 Q94.9219,152.5 95.7656,153 L95.7656,156 Q94.9844,155.0156 94.1641,154.5078 Q93.3438,154 92.5469,154 Q91.6719,154 91.1953,154.3828 Q90.7188,154.7656 90.7188,155.4688 Q90.7188,156.0156 91.0625,156.375 Q91.4063,156.7344 92.5,157.1719 L93.5625,157.4219 Q95.0625,157.9063 95.7656,158.7031 Q96.4688,159.5 96.4688,160.7188 Q96.4688,162.375 95.3594,163.1875 Q94.25,164 92.0156,164 Q91.0938,164 90.1641,163.75 Q89.2344,163.5 88.375,163 L88.375,160 Q89.3594,161.0156 90.2734,161.5078 Q91.1875,162 92.0781,162 Q92.9844,162 93.4844,161.5938 Q93.9844,161.1875 93.9844,160.4531 Q93.9844,159.9063 93.6484,159.4922 Q93.3125,159.0781 92.6875,158.8438 L91.4844,158.5469 Z "/><text fill="#000000" font-family="sans-serif" font-size="12" lengthAdjust="spacingAndGlyphs" textLength="28" x="112.75" y="162.1543">Liste</text><line style="stroke: #A80036; stroke-width: 1.5;" x1="7" x2="214" y1="174" y2="174"/><text fill="#000000" font-family="sans-serif" font-size="11" lengthAdjust="spacingAndGlyphs" textLength="82" x="12" y="188.2104">_tete: Noeud *</text><line style="stroke: #A80036; stroke-width: 1.5;" x1="7" x2="214" y1="194.8047" y2="194.8047"/><text fill="#000000" font-family="sans-serif" font-size="11" lengthAdjust="spacingAndGlyphs" textLength="34" x="12" y="209.0151">Liste()</text><text fill="#000000" font-family="sans-serif" font-size="11" lengthAdjust="spacingAndGlyphs" textLength="178" x="12" y="221.8198">ajouterDevant(valeur: int): void</text><text fill="#000000" font-family="sans-serif" font-size="11" lengthAdjust="spacingAndGlyphs" textLength="126" x="12" y="234.6245">«const» getTaille(): int</text><text fill="#000000" font-family="sans-serif" font-size="11" lengthAdjust="spacingAndGlyphs" textLength="197" x="12" y="247.4292">«const» getElement(indice: int): int</text><!--link Noeud to Noeud--><path d="M167.24,16.5017 C186.5108,16.3521 202,25.8516 202,45 C202,59.5109 193.1049,68.4806 180.4097,71.9091 " fill="none" id="Noeud-Noeud" style="stroke: #A80036; stroke-width: 1.0;"/><polygon fill="#FFFFFF" points="167.24,73.4983,173.676,76.7507,179.1536,72.0607,172.7176,68.8083,167.24,73.4983" style="stroke: #A80036; stroke-width: 1.0;"/><!--link Noeud to Liste--><path d="M110.5,82.037 C110.5,96.0629 110.5,112.526 110.5,128.5706 " fill="none" id="Noeud-Liste" style="stroke: #A80036; stroke-width: 1.0;"/><polygon fill="#A80036" points="110.5,141.8871,114.5,135.8871,110.5,129.8871,106.5,135.8871,110.5,141.8871" style="stroke: #A80036; stroke-width: 1.0;"/><!--
@startuml

class Noeud <<(S,LightBlue)>> {
_valeur: int
_suivant: Noeud *
}

class Liste <<(S,LightBlue)>> {
_tete: Noeud *
Liste()
ajouterDevant(valeur: int): void
<<const>> getTaille(): int
<<const>> getElement(indice: int): int
}

Noeud - -o Noeud
Noeud - -* Liste

@enduml

PlantUML version 1.2017.18(Fri Oct 06 18:56:32 CEST 2017)
(GPL source distribution)
Java Runtime: OpenJDK Runtime Environment
JVM: OpenJDK 64-Bit Server VM
Java Version: 1.8.0_172-02
Operating System: Linux
OS Version: 4.14.32
Default Encoding: UTF-8
Language: fr
Country: FR
--></g></svg>